# xmcd CD Database Entry
#
# Track frame offsets:
# 150
# 13638
# 52117
# 68275
# 93059
# 127136
# 146856
# 164058
# 184461
# 198501
# 223295
# 251300
# 264376
#
# Disc length: 3698 seconds
#
# Revision: 2
# Processed by: cddbd v1.4PL0 Copyright (c) Steve Scherf et al.
# Submitted via: tcd 2.0b
#
DISCID=c70e700d
DTITLE=Venotar's Chillin Tunes
DYEAR=1900
DGENRE=
TTITLE0=Fly Like An Eagle - Steve Miller's Band
TTITLE1=Don McLean - American Pie
TTITLE2=Bungle In The Jungle - Jethro Tull
TTITLE3=Something To Believe In - Poison
TTITLE4=Tuesday's Gone - Lynyrd Skynyrd
TTITLE5=Locomotive Breathe - Jethro Tull
TTITLE6=Paint It Black - Rolling Stones
TTITLE7=House OF The Rising Sun - The Animals
TTITLE8=Keep On Rockin Me - Steve Millers Band
TTITLE9=Janie's Got a Gun - Aerosmith
TTITLE10=Lord Have Mercy On My Soul - Black Oak Arkansas
TTITLE11=Right Place, Wrong Time - Dr. John 
TTITLE12=Take The Money And Run, Steve Miller's Band
EXTD=
EXTT0=
EXTT1=
EXTT2=
EXTT3=
EXTT4=
EXTT5=
EXTT6=
EXTT7=
EXTT8=
EXTT9=
EXTT10=
EXTT11=
EXTT12=
PLAYORDER=
